#!OML:ASF F:\VICON\USERDATA\INSTALL\rory3\rory3.ASF
:FULLY-SPECIFIED
:DEGREES
1985
root -0.951602 14.5014 -10.8893 -390.716 -65.4929 388.66
lowerback 18.6163 -3.14629 -12.9024
upperback -0.107357 -7.2132 -1.56735
thorax -9.21043 -2.91712 7.35211
lowerneck -13.6085 -3.28524 -2.22584
upperneck 19.3151 -4.38244 0.805062
head 8.31067 -2.21846 0.140731
rclavicle -7.23079e-015 -3.97569e-016
rhumerus 9.9143 1.16296 -66.6333
rradius 25.5946
rwrist -45.7939
rhand -11.0822 10.8421
rfingers 7.12502
rthumb 14.9413 -18.599
lclavicle -7.23079e-015 -3.97569e-016
lhumerus 21.157 -32.5042 58.7353
lradius 94.9322
lwrist 18.5354
lhand -0.551864 11.2543
lfingers 7.12502
lthumb 25.0617 39.6299
rfemur -33.596 4.08475 16.7373
rtibia 70.7096
rfoot -29.1461 -3.63052
rtoes 9.69887
lfemur -17.6821 17.1388 -7.13114
ltibia 41.4078
lfoot -33.0578 15.0391
ltoes 50.7452
1986
root -0.961961 14.5108 -10.8933 -390.562 -65.8542 388.379
lowerback 18.7765 -3.20797 -12.3286
upperback -0.151199 -7.20797 -1.65546
thorax -9.42915 -2.92318 6.96022
lowerneck -13.6148 -3.47523 -2.31799
upperneck 19.4227 -4.67963 1.03125
head 8.36097 -2.34379 0.19605
rclavicle -4.34593e-014 -2.42517e-014
rhumerus 10.9833 0.30056 -65.8683
rradius 25.3022
rwrist -45.1116
rhand -10.6886 10.7349
rfingers 7.12502
rthumb 15.3204 -18.6776
lclavicle -4.34593e-014 -2.42517e-014
lhumerus 21.3674 -33.5255 58.1189
lradius 95.2123
lwrist 18.7874
lhand -4.48587 12.3963
lfingers 7.12502
lthumb 21.2873 41.2472
rfemur -33.3336 4.49883 17.1288
rtibia 70.4797
rfoot -29.095 -4.07043
rtoes 9.05134
lfemur -17.4445 17.2212 -6.7725
ltibia 41.4754
lfoot -33.0961 15.3561
ltoes 50.2799
1987
root -0.967408 14.5007 -10.8941 -390.372 -65.8093 388.241
lowerback 18.825 -3.33837 -12.1857
upperback -0.208086 -7.35044 -1.57831
thorax -9.49793 -2.98662 7.00601
lowerneck -13.7996 -3.50184 -2.73903
upperneck 19.7007 -4.66987 1.22784
head 8.50428 -2.34979 0.325392
rclavicle 2.42269e-014 4.09496e-014
rhumerus 12.3178 -0.858543 -65.0824
rradius 24.9315
rwrist -43.9728
rhand -10.2327 10.7805
rfingers 7.12502
rthumb 15.7595 -18.5979
lclavicle 2.42269e-014 4.09496e-014
lhumerus 21.7138 -34.4287 58.0574
lradius 95.0428
lwrist 18.2308
lhand -4.14998 12.2533
lfingers 7.12502
lthumb 21.6099 41.0675
rfemur -33.4196 4.60497 17.1761
rtibia 70.5534
rfoot -29.236 -3.55997
rtoes 11.4503
lfemur -17.6033 17.6108 -6.67674
ltibia 41.5805
lfoot -32.4077 15.7872
ltoes 49.8211
1988
root -0.974977 14.505 -10.8993 -390.472 -65.4871 388.594
lowerback 18.7105 -3.49432 -12.1629
upperback -0.282434 -7.55077 -1.66723
thorax -9.49424 -3.08315 6.93097
lowerneck -13.6682 -3.45017 -2.05115
upperneck 19.4033 -4.6128 0.613027
head 8.34549 -2.3347 0.019931
rclavicle -1.25731e-014 -2.10712e-014
rhumerus 13.7008 -2.17454 -64.5275
rradius 24.5499
rwrist -43.0911
rhand -9.82586 10.8598
rfingers 7.12502
rthumb 16.1513 -18.4872
lclavicle -1.25731e-014 -2.10712e-014
lhumerus 22.3169 -35.4953 57.6219
lradius 95.0593
lwrist 18.434
lhand -4.43022 12.4624
lfingers 7.12502
lthumb 21.3408 41.3073
rfemur -33.6677 4.55577 16.8706
rtibia 70.676
rfoot -29.3374 -3.42853
rtoes 11.7951
lfemur -17.8025 17.4677 -7.08057
ltibia 41.3908
lfoot -32.6609 15.4371
ltoes 50.1797
1989
root -0.991669 14.505 -10.908 -391.414 -65.5157 389.517
lowerback 18.6677 -3.47128 -12.4649
upperback -0.220395 -7.57694 -1.675
thorax -9.35977 -3.09617 7.08392
lowerneck -13.648 -3.28417 -2.0572
upperneck 19.2368 -4.34773 0.48686
head 8.2793 -2.22157 0.0112991
rclavicle 5.62561e-014 -1.03368e-014
rhumerus 14.9335 -2.16852 -63.3972
rradius 24.7458
rwrist -43.1641
rhand -9.14485 10.0097
rfingers 7.12502
rthumb 16.807 -19.2829
lclavicle 5.62561e-014 -1.03368e-014
lhumerus 22.5855 -36.0659 57.4187
lradius 95.0548
lwrist 18.1872
lhand -3.68419 11.9288
lfingers 7.12502
lthumb 22.0572 40.6908
rfemur -33.5651 4.85717 16.593
rtibia 70.7459
rfoot -29.3639 -3.53089
rtoes 11.4051
lfemur -17.3421 17.7478 -7.32104
ltibia 41.054
lfoot -32.6602 15.4145
ltoes 50.1218
1990
root -1.00787 14.511 -10.912 -390.659 -65.3593 388.901
lowerback 18.6131 -3.68301 -12.0467
upperback -0.324315 -7.75946 -1.64123
thorax -9.45614 -3.18884 6.93217
lowerneck -13.7191 -3.25719 -2.02778
upperneck 19.2925 -4.32458 0.52173
head 8.31066 -2.20476 0.0187248
rclavicle 2.47487e-014 2.06736e-014
rhumerus 16.0124 -2.48631 -62.5356
rradius 24.7678
rwrist -43.0901
rhand -9.96924 10.9877
rfingers 7.12502
rthumb 16.0133 -18.3705
lclavicle 2.47487e-014 2.06736e-014
lhumerus 23.0286 -37.1984 56.9906
lradius 95.2174
lwrist 17.8746
lhand -4.05872 12.2988
lfingers 7.12502
lthumb 21.6976 41.1029
rfemur -33.5988 4.9325 16.8117
rtibia 70.6923
rfoot -29.5423 -4.12755
rtoes 10.7436
lfemur -17.6272 17.5828 -7.22258
ltibia 41.0459
lfoot -32.5429 15.5187
ltoes 50.2173
1991
root -1.02555 14.5143 -10.9223 -390.154 -65.1986 388.606
lowerback 18.485 -3.83273 -11.99
upperback -0.405606 -7.90813 -1.45203
thorax -9.42438 -3.25547 7.12993
lowerneck -14.1652 -3.51609 -2.35411
upperneck 19.6622 -4.58698 0.430635
head 8.52609 -2.3596 -0.00101801
rclavicle -1.15792e-014 5.40694e-014
rhumerus 17.2493 -2.64565 -61.4033
rradius 24.9566
rwrist -43.1332
rhand -10.5694 11.0634
rfingers 7.12502
rthumb 15.4353 -18.3403
lclavicle -1.15792e-014 5.40694e-014
lhumerus 23.5109 -37.8674 57.3864
lradius 94.4718
lwrist 17.2379
lhand -3.95803 12.3309
lfingers 7.12502
lthumb 21.7943 41.1238
rfemur -33.7261 5.0634 16.9188
rtibia 70.662
rfoot -29.753 -3.98214
rtoes 12.5866
lfemur -17.9201 17.4217 -7.22421
ltibia 41.0407
lfoot -32.7039 15.1137
ltoes 50.3993
1992
root -1.03989 14.5004 -10.9481 -390.487 -65.4452 388.802
lowerback 18.8219 -3.72274 -11.9597
upperback -0.434522 -7.81426 -1.4904
thorax -9.67568 -3.19002 7.09256
lowerneck -13.8858 -3.41958 -2.26628
upperneck 19.2816 -4.47905 0.479572
head 8.34427 -2.29709 0.02339
rclavicle -2.78299e-015 -1.98785e-015
rhumerus 18.3745 -3.63563 -61.0119
rradius 24.8385
rwrist -42.5294
rhand -10.3734 11.2109
rfingers 7.12502
rthumb 15.624 -18.1781
lclavicle -2.78299e-015 -1.98785e-015
lhumerus 24.07 -38.905 56.6459
lradius 94.4222
lwrist 17.1147
lhand -3.68482 12.1974
lfingers 7.12502
lthumb 22.0566 40.9595
rfemur -33.5891 5.85365 17.1889
rtibia 70.729
rfoot -29.8424 -4.03385
rtoes 14.1223
lfemur -17.5604 18.1543 -6.88825
ltibia 40.9248
lfoot -31.8933 15.6191
ltoes 49.7891
1993
root -1.05015 14.5064 -10.9635 -390.695 -65.0095 389.243
lowerback 18.8334 -3.94863 -11.6992
upperback -0.537395 -8.1173 -1.90204
thorax -9.83958 -3.34299 6.57395
lowerneck -14.0597 -3.53986 -2.20083
upperneck 19.491 -4.73751 0.820393
head 8.45708 -2.37919 0.0907593
rclavicle -1.22774e-013 -5.12864e-014
rhumerus 19.3263 -4.36666 -60.8831
rradius 24.8405
rwrist -41.8935
rhand -10.2682 11.3648
rfingers 7.12502
rthumb 15.7254 -18.0162
lclavicle -1.22774e-013 -5.12864e-014
lhumerus 24.3654 -39.9512 55.7153
lradius 94.6121
lwrist 17.2182
lhand -3.45801 11.9672
lfingers 7.12502
lthumb 22.2743 40.7035
rfemur -33.7457 5.7643 16.8367
rtibia 70.7872
rfoot -30.0281 -4.01539
rtoes 14.8513
lfemur -17.707 17.6429 -7.3874
ltibia 40.6722
lfoot -32.5206 15.0739
ltoes 50.1653
1994
root -1.07111 14.495 -10.9836 -391.725 -64.8059 390.353
lowerback 18.7586 -4.04798 -11.167
upperback -0.481793 -8.23027 -2.77334
thorax -9.9263 -3.45171 5.35177
lowerneck -13.8862 -3.35149 -1.16923
upperneck 19.2548 -4.72091 0.876416
head 8.32028 -2.29243 -0.0515827
rclavicle -2.23136e-014 -2.84262e-014
rhumerus 20.2051 -6.04684 -61.5783
rradius 24.5726
rwrist -41.0051
rhand -9.88353 11.6521
rfingers 7.12502
rthumb 16.0958 -17.6995
lclavicle -2.23136e-014 -2.84262e-014
lhumerus 25.4962 -41.4467 53.765
lradius 94.5522
lwrist 17.1205
lhand -3.45522 11.6307
lfingers 7.12502
lthumb 22.277 40.3667
rfemur -33.7976 6.15062 16.4022
rtibia 70.9989
rfoot -30.2112 -4.27576
rtoes 14.5913
lfemur -17.5895 18.015 -7.83401
ltibia 40.6178
lfoot -31.608 16.4956
ltoes 48.6636
1995
root -1.09225 14.4921 -11.0099 -391.552 -64.7358 390.181
lowerback 18.7744 -4.09018 -10.9486
upperback -0.439321 -8.25354 -2.90668
thorax -9.93402 -3.47982 5.0942
lowerneck -13.6498 -3.23033 -0.519162
upperneck 18.8679 -4.60639 0.50146
head 8.12075 -2.23151 -0.260083
rclavicle 8.44835e-015 4.96962e-016
rhumerus 21.0303 -6.09318 -60.7409
rradius 24.947
rwrist -41.2259
rhand -9.755 11.4653
rfingers 7.12502
rthumb 16.2196 -17.8762
lclavicle 8.44835e-015 4.96962e-016
lhumerus 26.1734 -42.567 53.0616
lradius 94.4366
lwrist 16.3833
lhand -3.42979 11.6391
lfingers 7.12502
lthumb 22.3014 40.3722
rfemur -33.7383 6.50449 16.6054
rtibia 71.06
rfoot -30.4324 -4.07628
rtoes 16.017
lfemur -17.6372 18.296 -7.68426
ltibia 40.7047
lfoot -31.4242 16.3657
ltoes 48.8504
1996
root -1.10826 14.4946 -11.0264 -390.991 -64.5531 389.781
lowerback 18.7735 -4.29194 -10.6007
upperback -0.510654 -8.45031 -2.9226
thorax -10.0339 -3.58112 4.93838
lowerneck -14.4961 -3.47516 -1.42415
upperneck 19.7418 -4.91536 1.21331
head 8.61379 -2.36095 0.0627719
rclavicle -1.11195e-014 -6.75868e-015
rhumerus 21.9343 -5.7561 -59.8774
rradius 25.3015
rwrist -41.1628
rhand -10.0511 11.5371
rfingers 7.12502
rthumb 15.9345 -17.8274
lclavicle -1.11195e-014 -6.75868e-015
lhumerus 26.7432 -43.1757 52.2716
lradius 94.3516
lwrist 16.2947
lhand -3.37413 11.7337
lfingers 7.12502
lthumb 22.3549 40.4604
rfemur -33.8279 6.57648 16.7504
rtibia 71.0098
rfoot -30.5078 -4.12482
rtoes 16.8145
lfemur -18.0194 18.574 -7.6605
ltibia 40.8612
lfoot -31.0868 16.5305
ltoes 48.3805
1997
root -1.1241 14.5001 -11.0446 -390.905 -64.2402 389.716
lowerback 18.9822 -4.31424 -10.1569
upperback -0.567814 -8.46254 -3.26613
thorax -10.3341 -3.59921 4.35794
lowerneck -14.1817 -3.57872 -1.21033
upperneck 19.5196 -5.14677 1.39654
head 8.48414 -2.43991 0.070581
rclavicle -7.73894e-014 -2.90226e-014
rhumerus 22.4622 -6.17348 -58.9938
rradius 25.4887
rwrist -41.5375
rhand -9.75864 11.3805
rfingers 7.12502
rthumb 16.2161 -17.9613
lclavicle -7.73894e-014 -2.90226e-014
lhumerus 27.7313 -44.758 51.3375
lradius 94.1383
lwrist 15.8428
lhand -3.32151 11.47
lfingers 7.12502
lthumb 22.4054 40.1905
rfemur -33.7093 6.53935 16.7234
rtibia 70.9785
rfoot -30.5012 -4.56489
rtoes 15.7258
lfemur -18.041 18.4675 -7.74262
ltibia 40.6915
lfoot -30.8667 16.8012
ltoes 47.8898
1998
root -1.13897 14.5019 -11.0621 -390.185 -63.9962 389.054
lowerback 19.1356 -4.28707 -10.4961
upperback -0.609312 -8.46006 -2.78458
thorax -10.3405 -3.55732 5.08055
lowerneck -14.1578 -3.59996 -1.66437
upperneck 19.3324 -5.02106 1.22658
head 8.4222 -2.42982 0.10571
rclavicle -4.16205e-015 2.04748e-014
rhumerus 23.3584 -5.3795 -57.1058
rradius 26.1381
rwrist -42.8479
rhand -9.75448 11.3321
rfingers 7.12502
rthumb 16.2201 -18.0093
lclavicle -4.16205e-015 2.04748e-014
lhumerus 28.4084 -45.618 51.6553
lradius 93.5741
lwrist 15.6019
lhand -3.38543 11.6192
lfingers 7.12502
lthumb 22.344 40.3471
rfemur -33.6181 6.35073 16.969
rtibia 70.8433
rfoot -30.6395 -4.64142
rtoes 15.8912
lfemur -18.2377 18.6261 -7.58139
ltibia 40.6196
lfoot -30.0421 17.3377
ltoes 47.0408
1999
root -1.16536 14.5055 -11.0766 -390.931 -63.7025 390.03
lowerback 19.0858 -4.26307 -10.8234
upperback -0.627858 -8.52201 -2.95434
thorax -10.3091 -3.5782 5.08195
lowerneck -14.5294 -3.66261 -1.99451
upperneck 19.4548 -5.09409 1.54703
head 8.55041 -2.44974 0.24966
rclavicle -8.80989e-014 -3.63776e-014
rhumerus 24.1977 -4.91145 -55.7945
rradius 26.5161
rwrist -43.0121
rhand -9.69725 11.1166
rfingers 7.12502
rthumb 16.2752 -18.2204
lclavicle -8.80989e-014 -3.63776e-014
lhumerus 29.0425 -46.6906 50.8565
lradius 93.526
lwrist 15.5872
lhand -3.65172 11.809
lfingers 7.12502
lthumb 22.0884 40.5674
rfemur -33.7152 6.45001 16.4919
rtibia 70.9058
rfoot -30.6559 -4.96904
rtoes 15.1418
lfemur -18.1178 18.4575 -8.15189
ltibia 40.4
lfoot -31.1127 16.7375
ltoes 47.1736
